P1
# Created by GIMP version 3.0.6 PNM plug-in
50 50
0000000000000000000000000000000000000000000000000000000000000000000000
0000000000000000000000000000000000000000000000000000000000000000000000
0000000000000000000000000000000000000000000000000000000000000011111111
1111111100000000000000000000000000000000001111111111111111000000000000
0000000000000000000000111111111111111100000000000000000000000000000000
0011111111111111110000000000000000000000000000000000111111111111111100
0000000000000000000000000000000011111111111111110000000000000000000000
0000000000001111111111111111000000000000000000000000000000000011111111
1111111100000000000000000000000000000000001111111111100011000000000000
0000000000000000000000111111111110001100000000000000000000000000000000
0011111111111000110000000000000000000000000000000000111111111111111100
0000000000000000000000000000000011111111111111110000000000000000000000
0000000000001111111111111111000000000000000000000000000000000011111111
1111111100000000000000000000000000000000001111111111111111000000000000
0000000000000000000000111111111111111100000000000000000000000000000000
0011111111111111110000000000000000000000000000000000000000000000000000
0000000000000000000000000000000000000000000000000000000000001111111111
1111100000000000000000000000000000000000111111111111111000000000000000
0000000000000000000011111111111111100000000000000000000000000000000000
1111111111111110000000000000000000000000000000000011111111111111100000
0000000000000000000000000000001111110000111110000000000000000000000000
0000000000111111000011111000000000000000000000000000000000001111110000
1111100000000000000000000000000000000000111111000011111000000000000000
0000000000000000000011111111111111100000000000000000000000000000000000
1111111111111110000000000000000000000000000000000011111111111111100000
0000000000000000000000000000001111111111111110000000000000000000000000
0000000000111111111111111000000000000000000000000000000000001110011111
1111100000000000000000000000000000000000111001111111111000000000000000
0000000000000000000011111111111111100000000000000000000000000000000000
1111111111111110000000000000000000000000000000000011111111111111100000
0000000000000000000000000000000000000000000000000000000000000000000000
0000000000000000000000000000000000000000000000000000000000000000000000
0000000000000000000000000000000000000000000000000000000000000000000000
0000000000000000000000000000000000000000000000000000000000000000000000
0000000000000000000000000000000000000000000000000000000000000000000000
00000000000000000000000000000000000000000000000000