P1
# Created by GIMP version 3.0.6 PNM plug-in
20 20
0000000000000000000000000000000000000000011110011111111111100111100111
1111111110010110011111111111100111100100000000011001111001111111111110
0110100111111111111001101001011111111110011010010111111111100111100111
1111111110000000000000000000000000000000000000000000011110000111100000
0001111000011110011000011110000111100110000111100001111001100000000000
00000001100000000000000000000000000000000000000000